# Blender v3.1.2 OBJ File: 'tower_b.blend'
# www.blender.org
o Icosphere_Icosphere.013
v 0.057003 -0.023316 0.274110
v 0.857743 0.074912 0.697724
v -0.288127 0.095578 1.658017
v -1.250079 -0.099928 0.152914
v -0.320811 -0.002524 -1.552500
v 0.944275 -0.044722 -1.230267
v 0.382959 1.004990 1.022539
v -0.768449 0.991455 0.695074
v -0.678226 0.987014 -1.223985
v 0.252224 0.814446 -1.975587
v 1.465025 0.692583 -0.620624
v 0.373084 1.601433 -0.704709
vt 0.441406 0.953814
vt 0.435826 0.944149
vt 0.446986 0.944149
vt 0.430245 0.953814
vt 0.424665 0.944149
vt 0.396764 0.953814
vt 0.391184 0.944149
vt 0.402344 0.944149
vt 0.407924 0.953814
vt 0.413505 0.944149
vt 0.419085 0.953814
vt 0.430245 0.934483
vt 0.441406 0.934483
vt 0.396764 0.934483
vt 0.407924 0.934483
vt 0.419085 0.934483
vt 0.452566 0.934483
vt 0.435826 0.924818
vt 0.446986 0.924818
vt 0.402344 0.924818
vt 0.413505 0.924818
vt 0.424665 0.924818
vn 0.0677 -0.9925 0.1022
vn 0.0872 -0.9940 0.0656
vn 0.0492 -0.9940 0.0977
vn 0.0607 -0.9979 -0.0239
vn -0.0321 -0.9995 -0.0047
vn 0.7850 -0.6151 0.0734
vn 0.6418 0.0606 0.7645
vn -0.8439 0.1117 0.5248
vn -0.8641 -0.1529 -0.4796
vn 0.1884 -0.5526 -0.8119
vn 0.8299 0.2493 0.4991
vn -0.2126 0.6602 0.7203
vn -0.9058 0.4214 -0.0436
vn -0.6242 0.0336 -0.7805
vn 0.7460 0.0235 -0.6656
vn 0.6066 0.7525 0.2564
vn -0.1035 0.9400 0.3252
vn -0.4951 0.8685 -0.0253
vn -0.2440 0.8347 -0.4937
vn 0.5870 0.6621 -0.4659
s off
f 1/1/1 2/2/1 3/3/1
f 2/2/2 1/4/2 6/5/2
f 1/6/3 3/7/3 4/8/3
f 1/9/4 4/8/4 5/10/4
f 1/11/5 5/10/5 6/5/5
f 2/2/6 6/5/6 11/12/6
f 3/3/7 2/2/7 7/13/7
f 4/8/8 3/7/8 8/14/8
f 5/10/9 4/8/9 9/15/9
f 6/5/10 5/10/10 10/16/10
f 2/2/11 11/12/11 7/13/11
f 3/3/12 7/13/12 8/17/12
f 4/8/13 8/14/13 9/15/13
f 5/10/14 9/15/14 10/16/14
f 6/5/15 10/16/15 11/12/15
f 7/13/16 11/12/16 12/18/16
f 8/17/17 7/13/17 12/19/17
f 9/15/18 8/14/18 12/20/18
f 10/16/19 9/15/19 12/21/19
f 11/12/20 10/16/20 12/22/20
