# Blender v3.1.2 OBJ File: 'tower_b.blend'
# www.blender.org
o Icosphere.002_Icosphere.015
v -0.060958 -0.043141 -0.067923
v 0.155583 -0.060443 1.751652
v -1.085199 0.054676 0.024523
v -0.989885 0.054676 -2.239727
v 0.713332 0.054676 -0.744746
v 1.267127 -0.060443 1.276221
v -0.390126 0.967976 1.425796
v -0.943921 1.083097 -0.595171
v -0.137768 1.083097 -1.083628
v 1.408405 0.967976 0.656526
v 1.421092 0.668751 2.591605
v 0.384164 1.603573 0.748973
vt 0.526357 0.914883
vt 0.535010 0.929870
vt 0.517705 0.929870
vt 0.543662 0.914883
vt 0.552314 0.929870
vt 0.595577 0.914883
vt 0.604229 0.929870
vt 0.586924 0.929870
vt 0.578272 0.914883
vt 0.569619 0.929870
vt 0.560967 0.914883
vt 0.543662 0.944856
vt 0.526357 0.944856
vt 0.595577 0.944856
vt 0.578272 0.944856
vt 0.560967 0.944856
vt 0.509052 0.944856
vt 0.535010 0.959843
vt 0.517705 0.959843
vt 0.586924 0.959843
vt 0.569619 0.959843
vt 0.552314 0.959843
vn -0.0949 -0.9955 0.0018
vn -0.0039 -1.0000 -0.0090
vn -0.0954 -0.9954 -0.0040
vn 0.0630 -0.9954 -0.0718
vn 0.0615 -0.9954 -0.0735
vn 0.1958 -0.8672 0.4578
vn -0.7949 -0.2460 0.5546
vn -0.9929 0.1112 -0.0418
vn 0.6321 0.2858 -0.7202
vn 0.9193 -0.2880 -0.2683
vn -0.5437 -0.0227 0.8389
vn -0.9193 0.2880 0.2683
vn -0.3025 0.8119 -0.4993
vn 0.7027 0.3842 -0.5989
vn 0.9876 -0.1539 -0.0303
vn -0.2075 0.8203 0.5329
vn -0.5186 0.8337 0.1896
vn -0.1412 0.9622 -0.2330
vn 0.4677 0.8063 -0.3622
vn 0.5313 0.8378 0.1261
s off
f 1/1/1 2/2/1 3/3/1
f 2/2/2 1/4/2 6/5/2
f 1/6/3 3/7/3 4/8/3
f 1/9/4 4/8/4 5/10/4
f 1/11/5 5/10/5 6/5/5
f 2/2/6 6/5/6 11/12/6
f 3/3/7 2/2/7 7/13/7
f 4/8/8 3/7/8 8/14/8
f 5/10/9 4/8/9 9/15/9
f 6/5/10 5/10/10 10/16/10
f 2/2/11 11/12/11 7/13/11
f 3/3/12 7/13/12 8/17/12
f 4/8/13 8/14/13 9/15/13
f 5/10/14 9/15/14 10/16/14
f 6/5/15 10/16/15 11/12/15
f 7/13/16 11/12/16 12/18/16
f 8/17/17 7/13/17 12/19/17
f 9/15/18 8/14/18 12/20/18
f 10/16/19 9/15/19 12/21/19
f 11/12/20 10/16/20 12/22/20
