# Blender v3.1.2 OBJ File: 'tower_b.blend'
# www.blender.org
o Plane.002_Plane.007
v -0.004437 4.983501 -0.176144
v -0.466326 5.634217 -2.682529
v -0.160384 5.000981 0.079617
v -0.353094 5.128201 -0.094425
v 0.001657 5.080713 -1.678143
v -0.374077 5.792431 -2.469196
v -1.320828 5.608353 0.060238
v 0.315784 5.297875 0.216816
v 0.491791 5.368529 -0.025566
v -0.146551 5.130048 -0.352169
v -0.037216 5.308194 -0.344410
v 0.163644 5.162238 -0.360477
v 0.439047 5.430988 -0.202236
v -2.784842 5.907004 -0.020069
v 0.080948 4.995850 0.163136
v 0.165848 4.992353 -0.079815
v 0.313750 5.547022 0.009136
v 0.280095 5.347150 0.098473
v 0.260816 5.560499 0.206440
v -0.120783 4.964221 -0.130283
v 0.248584 5.332228 0.388302
v -0.488865 5.197853 0.098469
v -0.329748 5.381983 0.069515
v -0.383555 5.324100 -0.129436
v 0.130684 5.498989 0.351292
v -1.403779 5.449671 0.008724
v -0.726323 6.733552 -2.662830
v -1.578219 5.671101 0.098095
v -1.327618 5.489188 0.109531
v -1.599485 5.562635 0.121204
v 0.384768 0.001540 0.385502
v -0.092808 5.132799 -1.660587
v -0.052072 5.240550 -1.688980
v 0.085618 5.126150 -1.697224
v 0.034625 5.249188 -1.659214
v -0.292250 5.395561 -2.083149
v -0.160123 5.442991 -2.116772
v -0.650798 6.753420 -2.575970
v -0.588826 5.643240 -2.574036
v -0.572417 5.732961 -2.450428
v -2.790484 5.923491 0.019772
v -0.385068 0.001540 0.385204
v 0.000053 -0.001808 0.525181
v -0.384768 0.001540 -0.384636
v -0.528204 -0.001451 0.000492
v 0.385070 0.001540 -0.384335
v -0.000057 -0.001451 -0.527771
v 0.528205 -0.001451 0.000378
v -0.345593 5.733157 -2.620644
v -2.398596 6.017156 1.621159
v -2.472755 6.033883 1.593357
v -2.407107 6.069719 1.598766
v 1.516805 6.766253 1.649792
v 1.432538 6.709198 1.729267
v 1.354401 6.801095 1.705967
v 1.427001 6.838131 1.609203
v 0.277055 5.511646 -0.143894
v 2.134080 6.701769 -0.348778
v 2.087970 6.770392 -0.310703
v 2.057380 6.793272 -0.390095
v 2.118583 6.741497 -0.429615
v 2.103297 7.108171 1.307442
v 2.559252 7.709020 0.181519
v 1.560212 7.990664 -0.357639
v 1.208071 7.829499 0.566998
v 0.711601 7.561961 -0.856091
v 1.750658 7.556093 -1.306675
v 1.903498 6.785213 -1.711040
v 1.005778 6.727529 -1.643406
v 1.860835 5.736036 -1.644756
v 2.577125 7.498801 -0.870316
v 2.788566 6.314800 -1.356606
v 2.670202 5.203871 -0.815693
v 3.232659 6.001671 -0.439823
v 3.123698 6.932153 -0.475945
v 3.050936 6.829533 0.598637
v 2.971987 5.638370 0.545776
v -3.314291 6.142999 -0.985912
v -2.495576 6.633664 -1.040329
v -2.155190 5.515804 -1.481102
v -3.016990 7.133384 0.084801
v -1.842024 7.206071 0.054306
v -3.061899 6.100067 1.568977
v -3.735219 6.351921 0.565956
v -3.816186 6.133685 -0.264069
v -3.585094 4.771645 0.919136
v -3.520793 5.009194 -0.735737
v -3.141422 4.371126 -0.390537
v -2.052421 5.562193 2.155869
v -3.365712 5.481710 1.898891
v -2.327449 6.575271 2.237583
v -3.139026 7.152539 1.689568
v -1.345803 7.172079 1.267979
v -1.554448 7.504045 0.346668
v -1.060635 5.553563 -0.028923
v -1.242657 6.175679 1.767326
v -0.855654 5.681335 0.912457
v -1.776843 4.838707 1.433804
v -1.694098 4.661722 0.459141
v -2.792820 4.677518 1.393566
v -0.530769 4.577280 -3.341827
v -0.142512 6.703555 -3.012535
v 0.613737 6.066380 -2.986229
v -0.610944 7.124288 -2.298023
v -0.501143 7.050255 -1.485916
v -1.914229 6.252761 -1.176914
v -1.498400 6.963467 -2.354645
v -0.994450 6.124803 -3.496685
v -1.659152 4.993125 -3.117573
v -2.145599 4.775742 -2.035397
v -2.027116 6.016392 -2.820408
v 0.130079 6.171427 2.440849
v 0.030670 7.595378 1.811577
v 1.488941 8.029786 1.800129
v 1.282061 8.080023 0.705898
v 2.501249 7.308298 1.502960
v 2.422593 7.177158 0.435593
v 1.515745 7.273430 2.597988
v 2.548980 5.717581 1.104786
v 2.336283 6.401295 2.222813
v 1.432814 5.216025 2.075584
v 1.437139 6.283665 2.714298
vt 0.445769 0.443619
vt 0.444856 0.452807
vt 0.444348 0.443505
vt 0.443928 0.442143
vt 0.453386 0.441888
vt 0.453117 0.442758
vt 0.444243 0.453018
vt 0.446370 0.443346
vt 0.441153 0.442395
vt 0.445184 0.440966
vt 0.443477 0.440505
vt 0.442113 0.441736
vt 0.444580 0.442314
vt 0.459384 0.443266
vt 0.459600 0.444108
vt 0.459167 0.443828
vt 0.454194 0.428998
vt 0.455343 0.429396
vt 0.454707 0.429683
vt 0.427581 0.448563
vt 0.427116 0.448310
vt 0.427641 0.448192
vt 0.445536 0.444525
vt 0.443757 0.441990
vt 0.446571 0.444615
vt 0.445769 0.442143
vt 0.444348 0.443176
vt 0.441898 0.441984
vt 0.446571 0.442086
vt 0.441153 0.440371
vt 0.441943 0.440941
vt 0.441559 0.443602
vt 0.442809 0.444044
vt 0.443870 0.441915
vt 0.442046 0.441902
vt 0.443815 0.443176
vt 0.446845 0.439534
vt 0.448091 0.441249
vt 0.446593 0.440371
vt 0.453328 0.442697
vt 0.456116 0.443794
vt 0.453127 0.441935
vt 0.460218 0.453260
vt 0.459603 0.453401
vt 0.459919 0.446182
vt 0.458715 0.446181
vt 0.458848 0.446602
vt 0.440445 0.445546
vt 0.439472 0.453260
vt 0.441312 0.445482
vt 0.459589 0.445546
vt 0.424868 0.447529
vt 0.433295 0.444976
vt 0.433445 0.445743
vt 0.443477 0.441002
vt 0.444612 0.405607
vt 0.447334 0.405631
vt 0.440815 0.441002
vt 0.441375 0.405609
vt 0.438653 0.405631
vt 0.441375 0.405609
vt 0.444097 0.405631
vt 0.441965 0.458538
vt 0.440561 0.458405
vt 0.456354 0.444129
vt 0.434679 0.441006
vt 0.435218 0.440293
vt 0.435266 0.445299
vt 0.435218 0.444456
vt 0.442278 0.443698
vt 0.427641 0.429598
vt 0.440681 0.443451
vt 0.441313 0.444865
vt 0.439917 0.444961
vt 0.439844 0.443103
vt 0.429706 0.453491
vt 0.454747 0.428833
vt 0.454747 0.453088
vt 0.454194 0.453738
vt 0.445536 0.438583
vt 0.454707 0.454000
vt 0.455343 0.453491
vt 0.446457 0.444961
vt 0.459710 0.443536
vt 0.447718 0.442499
vt 0.459710 0.453035
vt 0.446593 0.443451
vt 0.448091 0.443602
vt 0.459167 0.453683
vt 0.459600 0.453316
vt 0.444623 0.452941
vt 0.443574 0.443560
vt 0.443955 0.452817
vt 0.440224 0.440966
vt 0.446457 0.439608
vt 0.446831 0.441003
vt 0.438631 0.443346
vt 0.444418 0.453316
vt 0.443576 0.453521
vt 0.443846 0.453035
vt 0.433445 0.440374
vt 0.435266 0.440642
vt 0.424908 0.441210
vt 0.442278 0.440576
vt 0.433295 0.440211
vt 0.424868 0.440928
vt 0.447718 0.444044
vt 0.445217 0.453076
vt 0.445785 0.441633
vt 0.442113 0.441902
vt 0.441898 0.443288
vt 0.442544 0.455807
vt 0.443478 0.456044
vt 0.440561 0.446181
vt 0.441965 0.446602
vt 0.440007 0.453401
vt 0.442166 0.446182
vt 0.442300 0.440742
vt 0.444099 0.405631
vt 0.441887 0.405631
vt 0.444611 0.405609
vt 0.441889 0.405631
vt 0.443757 0.440742
vt 0.444580 0.440878
vt 0.445785 0.440941
vt 0.447336 0.405631
vt 0.438651 0.405631
vt 0.440445 0.459280
vt 0.441312 0.460047
vt 0.460357 0.445482
vt 0.453251 0.441566
vt 0.424908 0.447412
vt 0.440603 0.444456
vt 0.440952 0.445299
vt 0.430067 0.448563
vt 0.429908 0.448192
vt 0.430105 0.448310
vt 0.440684 0.445743
vt 0.440520 0.444976
vt 0.427581 0.429757
vt 0.427116 0.429795
vt 0.446370 0.438321
vt 0.459384 0.453521
vt 0.446831 0.444865
vt 0.703801 0.829771
vt 0.683668 0.839890
vt 0.689124 0.821492
vt 0.695514 0.808108
vt 0.677242 0.824611
vt 0.681331 0.807453
vt 0.665746 0.821104
vt 0.657953 0.807635
vt 0.670421 0.807300
vt 0.653479 0.825818
vt 0.644527 0.840509
vt 0.642368 0.821978
vt 0.728618 0.837663
vt 0.717429 0.821467
vt 0.733391 0.822064
vt 0.708297 0.807375
vt 0.726213 0.807413
vt 0.646264 0.807300
vt 0.735880 0.807300
vt 0.714255 0.833044
vt 0.688122 0.825718
vt 0.704709 0.821488
vt 0.691907 0.807673
vt 0.714416 0.808836
vt 0.668950 0.807941
vt 0.661417 0.839574
vt 0.667516 0.830222
vt 0.653950 0.808769
vt 0.642368 0.821944
vt 0.664646 0.807548
vt 0.729333 0.842013
vt 0.731041 0.821669
vt 0.703718 0.825466
vt 0.700901 0.807531
vt 0.717269 0.808513
vt 0.721384 0.831153
vt 0.699507 0.839156
vt 0.661234 0.809984
vt 0.659703 0.825561
vt 0.648725 0.807425
vt 0.669395 0.840332
vt 0.642368 0.821980
vt 0.735880 0.821980
vt 0.728088 0.807563
vt 0.735880 0.807300
vt 0.717121 0.808568
vt 0.708282 0.834426
vt 0.698655 0.808076
vt 0.693155 0.822206
vt 0.670188 0.828998
vt 0.660859 0.807952
vt 0.677435 0.807300
vt 0.654057 0.848212
vt 0.649426 0.831466
vt 0.733400 0.833271
vt 0.728088 0.821500
vt 0.654786 0.808340
vt 0.681331 0.821114
vt 0.682454 0.821088
vt 0.680157 0.807370
vt 0.734507 0.808939
vt 0.707414 0.837673
vt 0.701452 0.808475
vt 0.716624 0.808596
vt 0.687848 0.824345
vt 0.668849 0.840988
vt 0.669512 0.826882
vt 0.649995 0.830322
vt 0.654275 0.808558
vt 0.669948 0.807423
vt 0.678203 0.808475
vt 0.735880 0.830325
vt 0.725757 0.827483
vt 0.732623 0.808475
vt 0.684240 0.807305
vn 0.5876 0.8091 -0.0042
vn 0.9147 0.3989 -0.0642
vn -0.0823 0.9954 -0.0492
vn -0.2556 -0.4466 0.8575
vn -0.4142 -0.8898 -0.1917
vn 0.6369 0.7706 -0.0233
vn 0.3533 0.7541 0.5537
vn -0.2612 0.3422 0.9026
vn -0.3581 -0.0462 0.9325
vn -0.2403 0.9474 -0.2113
vn 0.2567 0.4476 -0.8566
vn -0.2509 0.8479 -0.4670
vn -0.5156 -0.8551 -0.0541
vn 0.7307 -0.5815 -0.3577
vn 0.7468 -0.5248 -0.4085
vn -0.6975 0.4523 -0.5557
vn 0.1129 0.9289 0.3527
vn -0.6940 0.4170 0.5869
vn 0.7047 0.2400 -0.6677
vn -0.7570 0.0222 0.6531
vn 0.9566 0.2831 0.0691
vn -0.6621 -0.1434 -0.7356
vn -0.9728 -0.1059 0.2060
vn -0.0190 0.2119 0.9771
vn -0.3248 0.0736 0.9429
vn 0.3401 0.0625 0.9383
vn -0.9355 0.0633 0.3476
vn 0.9356 0.0623 -0.3476
vn -0.1724 0.7692 0.6153
vn 0.8240 0.5636 0.0586
vn -0.2759 -0.9496 0.1487
vn -0.2735 -0.8072 0.5231
vn 0.0775 0.3773 0.9228
vn 0.0274 -0.9375 0.3468
vn 0.9641 -0.0453 0.2617
vn 0.8616 -0.3208 -0.3934
vn 0.6646 -0.7240 0.1849
vn -0.5600 -0.2784 0.7803
vn -0.6211 0.7643 -0.1735
vn 0.5816 0.2995 -0.7563
vn 0.5081 -0.7304 -0.4564
vn 0.4902 -0.4185 0.7645
vn -0.3333 0.2907 -0.8969
vn -0.8859 0.4633 -0.0243
vn -0.6262 -0.7786 -0.0410
vn 0.7128 -0.6363 0.2951
vn -0.2838 -0.5488 0.7863
vn -0.3020 0.9422 -0.1454
vn 0.6910 -0.6070 0.3924
vn 0.8495 0.5195 0.0925
vn 0.2062 0.9600 -0.1892
vn -0.2618 0.9506 -0.1668
vn 0.3768 0.5155 0.7696
vn -0.5315 0.5593 0.6362
vn -0.3125 0.9424 0.1194
vn -0.2996 -0.8851 0.3562
vn -0.0374 0.5352 -0.8439
vn 0.6493 -0.7598 -0.0328
vn 0.3206 -0.8092 -0.4923
vn -0.5210 -0.2280 -0.8225
vn -0.4278 -0.8339 -0.3488
vn -0.5029 -0.8202 -0.2727
vn -0.2443 0.8512 0.4645
vn 0.8832 0.4264 -0.1953
vn 0.2305 -0.7068 -0.6688
vn 0.0559 0.1261 0.9904
vn 0.3827 0.1070 -0.9177
vn -0.3045 -0.9319 -0.1972
vn -0.9523 0.0703 -0.2969
vn 0.2126 0.9132 -0.3478
vn -0.3401 0.0726 0.9376
vn -0.3540 0.0661 -0.9329
vn 0.3941 0.0691 -0.9164
vn 0.9376 0.0728 0.3401
vn -0.5201 -0.8347 -0.1813
vn 0.7589 -0.3702 -0.5358
vn -0.8718 -0.3340 0.3582
vn -0.8672 -0.2533 0.4288
vn 0.8665 0.4982 -0.0320
vn 0.2084 0.9160 -0.3429
vn -0.0904 -0.1888 -0.9778
vn 0.8285 0.2228 0.5137
vn 0.0518 0.1113 0.9924
vn -0.8508 0.0555 -0.5225
vn 0.2154 0.9668 -0.1378
vn -0.4032 0.8044 -0.4364
vn -0.5122 -0.8584 -0.0290
vn -0.2751 -0.9474 0.1637
vn -0.5896 -0.2462 0.7692
vn 0.4699 0.4320 -0.7698
vn 0.5083 -0.7840 0.3563
vn -0.5977 0.7742 -0.2082
vn 0.5213 -0.7437 -0.4186
vn -0.2593 0.1673 -0.9512
vn -0.1298 0.4227 0.8969
vn -0.4679 0.7848 0.4064
vn -0.5878 0.8077 -0.0458
vn 0.3868 -0.2349 0.8918
vn 0.3546 0.9180 -0.1775
vn 0.1500 0.9628 0.2249
vn 0.2526 0.8979 -0.3605
vn -0.1857 0.8788 -0.4397
vn -0.4447 0.8956 -0.0132
vn -0.0712 -0.0600 -0.9957
vn 0.5166 0.4026 -0.7557
vn 0.9081 0.0905 -0.4090
vn 0.9898 0.1190 0.0784
vn 0.5831 -0.0745 0.8089
vn 0.7541 0.6464 -0.1164
vn 0.8453 0.5234 0.1072
vn 0.5874 0.5907 0.5531
vn 0.2236 0.8194 0.5278
vn -0.3188 0.5886 -0.7429
vn 0.4345 0.4844 -0.7593
vn -0.0957 0.4474 -0.8892
vn 0.3371 -0.0730 -0.9386
vn 0.4984 -0.4219 -0.7574
vn 0.7613 0.3580 -0.5407
vn 0.8009 -0.3289 -0.5003
vn 0.8166 -0.5772 0.0032
vn 0.9705 -0.0745 0.2292
vn -0.7256 -0.5948 0.3461
vn -0.4616 0.7114 -0.5299
vn -0.0669 0.9000 -0.4307
vn 0.6495 0.4418 -0.6188
vn -0.0360 0.8207 0.5703
vn -0.7613 0.6415 -0.0944
vn -0.8237 0.0480 0.5650
vn -0.9716 -0.2258 -0.0702
vn -0.8266 -0.5517 -0.1113
vn -0.8210 0.0236 -0.5705
vn -0.2247 -0.5636 -0.7949
vn -0.4644 0.1719 0.8688
vn 0.4091 0.0375 0.9117
vn 0.7884 -0.6087 -0.0890
vn 0.7076 -0.4238 0.5654
vn 0.7179 -0.6717 0.1829
vn 0.0807 -0.6885 0.7207
vn 0.1466 -0.9710 0.1888
vn -0.1204 -0.5883 0.7997
vn -0.1829 -0.1283 0.9747
vn 0.3024 -0.0048 -0.9532
vn 0.2975 0.3158 -0.9010
vn -0.3944 0.8417 0.3687
vn -0.4852 0.5888 -0.6465
vn -0.5506 0.0441 -0.8336
vn -0.3842 -0.8565 -0.3447
vn -0.2372 0.2930 -0.9262
vn -0.6273 0.6508 -0.4278
vn -0.4651 0.7331 0.4963
vn -0.9910 -0.0685 0.1147
vn -0.4425 -0.1156 -0.8893
vn 0.8253 -0.4467 0.3454
vn -0.1441 0.7822 -0.6061
vn 0.1363 0.7761 0.6157
vn 0.0661 0.9434 0.3250
vn 0.4878 0.4309 0.7591
vn 0.9291 0.2380 0.2830
vn 0.9390 0.3310 -0.0934
vn 0.9289 0.2815 -0.2405
vn 0.6297 -0.4154 0.6565
vn -0.6431 0.0002 -0.7658
vn 0.6467 0.7625 -0.0212
vn -0.1842 0.9763 0.1139
vn -0.8708 0.4915 -0.0109
vn -0.9907 0.1262 0.0499
vn -0.8805 -0.1906 -0.4341
vn -0.2523 -0.1709 -0.9524
vn 0.4783 -0.5226 0.7058
vn -0.3772 0.3522 0.8565
vn -0.2052 0.7068 0.6770
vn 0.5864 0.5976 0.5468
vn 0.6836 0.3734 0.6271
vn 0.9956 0.0498 -0.0795
vn 0.6700 -0.5698 0.4759
vn 0.4724 -0.4539 0.7555
vn 0.4720 0.0658 0.8792
vn 0.5807 0.8070 -0.1069
vn -0.2834 0.9540 0.0974
vn 0.9798 -0.0204 0.1989
vn -0.1343 -0.5083 0.8506
vn -0.2138 0.1307 0.9681
vn -0.5047 -0.3914 -0.7695
s off
f 12/1/1 35/2/1 11/3/1
f 12/4/2 34/5/2 35/6/2
f 11/3/3 35/2/3 33/7/3
f 21/8/4 22/9/4 15/10/4
f 3/11/5 4/12/5 1/13/5
f 59/14/6 61/15/6 60/16/6
f 55/17/7 53/18/7 56/19/7
f 52/20/8 51/21/8 50/22/8
f 21/8/9 25/23/9 22/9/9
f 20/24/10 3/11/10 1/13/10
f 57/25/11 12/26/11 11/27/11
f 24/28/12 57/29/12 11/3/12
f 4/12/13 3/11/13 22/30/13
f 16/31/14 12/4/14 9/32/14
f 9/32/15 12/4/15 13/33/15
f 10/34/16 4/35/16 11/36/16
f 8/37/17 9/38/17 18/39/17
f 33/40/18 36/41/18 32/42/18
f 27/43/19 38/44/19 49/45/19
f 38/44/20 27/43/20 40/46/20
f 6/47/21 49/45/21 38/44/21
f 39/48/22 27/49/22 2/50/22
f 39/51/23 40/46/23 27/43/23
f 41/52/24 30/53/24 28/54/24
f 3/55/25 43/56/25 15/10/25
f 15/10/26 43/56/26 31/57/26
f 3/58/27 45/59/27 42/60/27
f 16/31/28 48/61/28 46/62/28
f 6/63/29 40/64/29 33/7/29
f 33/40/30 37/65/30 6/47/30
f 4/12/31 22/30/31 26/66/31
f 29/67/32 26/66/32 22/30/32
f 7/68/33 29/69/33 23/70/33
f 50/71/34 26/66/34 29/67/34
f 18/72/35 17/73/35 19/74/35
f 8/75/36 18/72/36 53/76/36
f 53/18/37 54/77/37 8/37/37
f 54/78/38 55/79/38 21/8/38
f 55/17/39 56/19/39 25/80/39
f 56/81/40 53/82/40 19/83/40
f 61/15/41 58/84/41 13/85/41
f 58/86/42 18/87/42 9/88/42
f 60/89/43 61/90/43 57/25/43
f 32/42/44 10/34/44 11/36/44 33/40/44
f 5/91/45 1/13/45 10/92/45 32/93/45
f 16/31/46 9/32/46 8/75/46 15/94/46
f 15/10/47 22/9/47 3/55/47
f 57/29/48 19/95/48 17/96/48
f 15/94/49 8/75/49 21/97/49
f 61/98/50 59/99/50 58/100/50
f 28/101/51 7/102/51 14/103/51
f 57/29/52 24/28/52 23/104/52 19/95/52
f 53/82/53 55/79/53 54/78/53
f 23/70/54 22/9/54 25/23/54
f 23/104/55 25/80/55 19/95/55
f 26/66/56 30/105/56 41/106/56 14/103/56
f 57/25/57 13/107/57 12/26/57
f 5/91/58 34/108/58 12/1/58 1/13/58
f 16/109/59 1/13/59 12/1/59
f 11/27/60 4/110/60 24/111/60
f 10/92/61 1/13/61 4/12/61
f 32/93/62 36/112/62 5/91/62
f 35/2/63 37/113/63 33/7/63
f 35/6/64 34/5/64 37/65/64
f 34/108/65 5/91/65 37/113/65
f 40/114/66 6/115/66 38/116/66
f 2/50/67 27/49/67 49/117/67
f 14/103/68 4/12/68 26/66/68
f 45/59/69 3/58/69 20/118/69 44/119/69
f 14/103/70 41/106/70 28/101/70
f 3/55/71 42/120/71 43/56/71
f 47/121/72 44/122/72 20/123/72 1/124/72
f 47/121/73 1/124/73 16/125/73 46/126/73
f 48/61/74 16/31/74 15/94/74 31/127/74
f 39/128/75 2/129/75 5/91/75 36/112/75
f 2/130/76 49/45/76 37/65/76 5/131/76
f 39/51/77 36/41/77 40/46/77
f 36/41/78 33/40/78 40/46/78
f 37/65/79 49/45/79 6/47/79
f 23/104/80 24/28/80 14/103/80 7/102/80
f 4/110/81 14/132/81 24/111/81
f 29/133/82 7/134/82 52/135/82 50/136/82
f 23/70/83 29/69/83 22/9/83
f 51/137/84 28/138/84 30/139/84
f 52/140/85 7/102/85 28/101/85
f 51/141/86 52/140/86 28/101/86
f 51/141/87 30/105/87 26/66/87
f 50/71/88 51/141/88 26/66/88
f 21/8/89 55/79/89 25/23/89
f 19/83/90 53/82/90 18/87/90
f 8/37/91 54/77/91 21/142/91
f 25/80/92 56/19/92 19/95/92
f 13/85/93 58/84/93 9/38/93
f 57/25/94 61/90/94 13/107/94
f 59/143/95 17/144/95 18/87/95
f 59/14/96 60/16/96 17/96/96
f 60/16/97 57/29/97 17/96/97
f 58/86/98 59/143/98 18/87/98
f 63/145/99 71/146/99 64/147/99
f 63/145/100 64/147/100 65/148/100
f 71/146/101 67/149/101 64/147/101
f 64/147/102 67/149/102 66/150/102
f 64/147/103 66/150/103 65/148/103
f 68/151/104 70/152/104 69/153/104
f 71/146/105 72/154/105 68/151/105
f 72/154/106 75/155/106 74/156/106
f 75/157/107 76/158/107 74/159/107
f 76/158/108 62/160/108 77/161/108
f 75/157/109 71/146/109 63/145/109
f 75/157/110 63/145/110 76/158/110
f 76/158/111 63/145/111 62/160/111
f 62/160/112 63/145/112 65/148/112
f 66/150/113 67/149/113 69/153/113
f 67/149/114 71/146/114 68/151/114
f 69/153/115 67/149/115 68/151/115
f 68/151/116 72/154/116 70/152/116
f 70/152/117 72/154/117 73/162/117
f 71/146/118 75/155/118 72/154/118
f 73/162/119 72/154/119 74/156/119
f 73/163/120 74/159/120 77/161/120
f 77/161/121 74/159/121 76/158/121
f 62/160/122 65/148/122 66/150/122 69/153/122 70/152/122 73/162/122 77/161/122
f 78/164/123 81/165/123 79/166/123
f 79/166/124 81/165/124 82/167/124
f 79/166/125 82/167/125 80/168/125
f 81/165/126 83/169/126 82/167/126
f 85/170/127 84/171/127 81/165/127
f 84/171/128 86/172/128 83/169/128
f 85/170/129 87/173/129 86/172/129
f 86/172/130 87/173/130 88/174/130
f 85/175/131 78/164/131 87/176/131
f 87/176/132 80/168/132 88/174/132
f 91/177/133 92/178/133 90/179/133
f 89/180/134 96/181/134 91/177/134
f 95/182/135 97/183/135 99/184/135
f 97/183/136 96/185/136 98/186/136
f 97/183/137 98/186/137 99/184/137
f 98/187/138 89/180/138 100/188/138
f 98/187/139 100/188/139 99/189/139
f 89/180/140 90/179/140 100/188/140
f 89/180/141 91/177/141 90/179/141
f 101/190/142 108/191/142 103/192/142
f 108/191/143 102/193/143 103/192/143
f 107/194/144 106/195/144 105/196/144
f 107/194/145 108/197/145 111/198/145
f 111/199/146 108/191/146 109/200/146
f 109/200/147 101/190/147 110/201/147
f 80/168/148 78/164/148 79/166/148
f 78/164/149 85/170/149 81/165/149
f 81/165/150 84/171/150 83/169/150
f 84/171/151 85/170/151 86/172/151
f 87/176/152 78/164/152 80/168/152
f 80/168/153 82/167/153 83/169/153 86/172/153 88/174/153
f 107/194/154 104/202/154 102/193/154 108/191/154
f 92/178/155 91/177/155 93/203/155
f 92/178/156 93/203/156 94/204/156
f 91/177/157 96/185/157 93/203/157
f 93/203/158 96/185/158 97/183/158
f 94/204/159 93/203/159 97/183/159
f 94/204/160 97/183/160 95/182/160
f 98/187/161 96/181/161 89/180/161
f 100/188/162 90/179/162 92/178/162 94/204/162 95/182/162 99/184/162
f 104/202/163 105/196/163 103/192/163 102/193/163
f 104/202/164 107/194/164 105/196/164
f 107/194/165 111/198/165 106/195/165
f 106/195/166 111/198/166 110/201/166
f 110/205/167 111/199/167 109/200/167
f 109/200/168 108/191/168 101/190/168
f 110/201/169 101/190/169 103/192/169 105/196/169 106/195/169
f 118/206/170 113/207/170 112/208/170
f 118/206/171 114/209/171 113/207/171
f 114/209/172 118/210/172 116/211/172
f 118/210/173 120/212/173 116/211/173
f 116/211/174 119/213/174 117/214/174
f 120/212/175 121/215/175 119/213/175
f 120/216/176 122/217/176 121/218/176
f 118/206/177 122/217/177 120/216/177
f 117/214/178 115/219/178 114/209/178 116/211/178
f 113/207/179 114/209/179 115/219/179
f 116/211/180 120/212/180 119/213/180
f 121/215/181 122/217/181 112/208/181
f 112/208/182 122/217/182 118/206/182
f 112/208/183 113/207/183 115/219/183 117/214/183 119/213/183 121/215/183
