# Blender v3.1.2 OBJ File: 'tower_b.blend'
# www.blender.org
o Cylinder.023_Cylinder.017
v 0.173442 -0.000128 -0.242426
v 0.067828 1.923185 -0.292826
v 0.264602 -0.000128 0.011572
v 0.235736 1.927344 -0.148409
v 0.253196 1.927488 0.068596
v 0.147343 -0.000128 0.223225
v 0.119077 1.924783 0.236607
v -0.324938 -0.000128 0.043150
v -0.138567 1.925183 0.262745
v -0.319919 1.924835 -0.016821
v -0.178347 1.930227 -0.267700
v -0.479496 3.871604 -0.290176
v -0.318856 3.928541 -0.119217
v -0.330123 3.923944 0.111032
v -0.479498 3.871603 0.256536
v -0.712985 3.791276 0.235350
v -0.838302 3.747572 0.063683
v -0.826279 3.751753 -0.124840
v -0.712983 3.791276 -0.268991
v -0.135436 -0.000141 -0.299603
v 0.140498 0.972656 -0.213932
v 0.197855 0.972655 0.039461
v 0.092943 0.972656 0.213003
v -0.125015 0.000655 0.264071
v -0.314832 0.972654 0.161207
v -0.373234 0.972655 -0.045212
v -0.255974 0.972654 -0.256865
v -0.230492 2.928912 0.039120
v -0.785748 2.835349 0.011513
v -0.332055 2.911227 0.212824
v -0.697105 2.850857 -0.242596
v -0.430724 2.893425 -0.297358
v -0.512442 2.880012 0.270704
v -0.259908 2.923854 -0.160582
v -0.691300 2.851378 0.202324
v 0.451615 5.842894 0.952811
v -0.117656 3.552970 0.851605
v -0.176708 5.764372 1.437862
v 0.155836 7.517241 0.219529
v 0.817583 4.454348 -0.115978
v -0.210283 3.007537 -0.029388
v -0.284356 4.099042 -1.247747
v 0.245629 7.077143 -0.735453
v -1.435746 4.640686 1.294045
v -1.435929 3.040336 0.217014
v -0.265697 6.103647 -1.159084
v -1.117144 3.611394 -1.087521
v -1.975437 5.474369 -0.197566
v -1.213772 7.591161 0.430576
v -1.595738 6.850169 -0.956487
vt 0.581552 0.453129
vt 0.576655 0.438936
vt 0.584473 0.424466
vt 0.568340 0.438936
vt 0.567406 0.453129
vt 0.561815 0.438936
vt 0.560487 0.453129
vt 0.552279 0.452950
vt 0.553378 0.424500
vt 0.547483 0.438936
vt 0.541445 0.453129
vt 0.540574 0.438936
vt 0.527137 0.453129
vt 0.533717 0.453129
vt 0.531935 0.453129
vt 0.527137 0.453129
vt 0.555578 0.453129
vt 0.551007 0.453129
vt 0.549267 0.453129
vt 0.561822 0.453129
vt 0.559041 0.453129
vt 0.568350 0.453129
vt 0.565961 0.453129
vt 0.573420 0.453129
vt 0.574869 0.453129
vt 0.537948 0.453129
vt 0.542368 0.453129
vt 0.544034 0.453129
vt 0.543289 0.424461
vt 0.561443 0.424461
vt 0.577911 0.424461
vt 0.569242 0.424461
vt 0.532153 0.453129
vt 0.574421 0.453129
vt 0.532775 0.438936
vt 0.530398 0.424463
vt 0.527137 0.453129
vt 0.582045 0.453129
vt 0.581238 0.453129
vt 0.783069 0.796487
vt 0.786700 0.802776
vt 0.778871 0.804892
vt 0.788707 0.811877
vt 0.798518 0.805491
vt 0.797263 0.821493
vt 0.779506 0.816193
vt 0.772089 0.815506
vt 0.789852 0.829455
vt 0.777500 0.827932
vt 0.802943 0.818331
vt 0.802808 0.830676
vt 0.812292 0.824945
vt 0.830272 0.827932
vt 0.828624 0.821643
vt 0.835518 0.831424
vt 0.844708 0.815506
vt 0.808526 0.815423
vt 0.820210 0.809525
vt 0.835824 0.809493
vt 0.812117 0.809065
vt 0.845690 0.804325
vt 0.808486 0.802776
vt 0.812986 0.797991
vt 0.827306 0.799622
vt 0.839927 0.798630
vn 0.4287 -0.0421 -0.9025
vn 0.8540 -0.0652 0.5162
vn 0.1009 -0.0274 0.9945
vn -0.4876 -0.0028 0.8731
vn -0.9612 0.0457 0.2720
vn -0.1466 -0.0148 -0.9891
vn -0.3511 -0.0410 0.9354
vn 0.3050 0.0035 0.9524
vn 0.8600 0.0494 0.5079
vn 0.9871 0.0640 -0.1470
vn -0.9385 -0.0911 -0.3330
vn -0.8910 -0.0769 0.4475
vn -0.7393 -0.0735 0.6693
vn 0.1483 0.0017 0.9889
vn 0.9404 0.0417 -0.3375
vn 0.7299 0.3480 0.5883
vn 0.1009 0.0312 0.9944
vn -0.7828 -0.4288 -0.4510
vn 0.6522 -0.0130 -0.7579
vn -0.8712 0.0642 -0.4868
vn 0.7813 -0.0369 0.6231
vn 0.9852 -0.0699 -0.1567
vn -0.8351 0.0968 0.5416
vn -0.1481 0.0130 -0.9889
vn 0.9941 0.0959 0.0506
vn 0.6716 0.0546 -0.7389
vn -0.7818 -0.0307 -0.6228
vn -0.9965 -0.0537 -0.0647
vn -0.8023 -0.0394 0.5957
vn -0.0963 0.0174 0.9952
vn -0.8717 -0.0870 -0.4823
vn 0.6829 0.0718 0.7269
vn 0.8652 0.0493 0.4990
vn -0.9620 -0.0230 0.2722
vn 0.3177 0.0277 0.9478
vn -0.7756 -0.4219 0.4695
vn 0.9727 0.0731 -0.2202
vn 0.1819 0.0349 -0.9827
vn 0.5927 0.2933 -0.7501
vn 0.8937 0.4359 -0.1060
vn -0.8471 -0.4234 -0.3213
vn -0.1489 -0.0694 -0.9864
vn 0.7771 0.3899 0.4941
vn 0.2784 0.1502 0.9486
vn -0.3342 -0.1386 0.9322
vn 0.7951 -0.5495 0.2566
vn 0.9766 0.2033 0.0703
vn 0.1149 -0.2517 0.9610
vn 0.1564 0.5435 0.8247
vn -0.3576 0.2870 0.8887
vn -0.0157 0.9075 -0.4197
vn -0.0542 0.8869 -0.4588
vn -0.9453 0.3124 0.0934
vn -0.8839 0.1914 0.4268
vn 0.0658 0.3689 -0.9271
vn -0.8094 -0.0962 -0.5793
vn -0.9533 -0.1686 0.2507
vn 0.5219 0.4179 0.7437
vn -0.1399 0.0194 -0.9900
vn -0.2142 0.0452 -0.9758
vn -0.9065 -0.2579 -0.3344
vn -0.1793 -0.5493 0.8162
vn 0.6148 -0.1867 0.7662
vn 0.9773 0.2118 -0.0057
vn 0.6700 -0.0291 -0.7418
vn 0.7124 0.0244 -0.7013
vn 0.6881 -0.5192 -0.5070
vn 0.2878 -0.7046 -0.6487
vn -0.1087 -0.9006 -0.4208
vn 0.0814 -0.8512 0.5184
vn 0.7964 -0.2228 0.5622
s off
f 2/1/1 21/2/1 20/3/1
f 22/4/2 5/5/2 23/6/2
f 23/6/3 7/7/3 9/8/3
f 24/9/4 9/8/4 25/10/4
f 25/10/5 10/11/5 26/12/5
f 32/13/6 31/14/6 19/15/6 12/16/6
f 33/17/7 16/18/7 35/19/7
f 30/20/8 15/21/8 33/17/8
f 28/22/9 14/23/9 30/20/9
f 13/24/10 28/22/10 34/25/10
f 18/26/11 31/14/11 29/27/11
f 35/19/12 17/28/12 29/27/12
f 25/10/13 8/29/13 24/9/13
f 9/8/14 24/9/14 6/30/14
f 1/31/15 21/2/15 3/32/15
f 30/20/16 7/7/16 5/5/16
f 33/17/17 9/8/17 7/7/17
f 10/11/18 31/14/18 11/33/18
f 2/1/19 4/34/19 21/2/19
f 27/35/20 26/12/20 10/11/20 11/33/20
f 23/6/21 5/5/21 7/7/21
f 22/4/22 21/2/22 4/34/22 5/5/22
f 25/10/23 9/8/23 10/11/23
f 20/36/24 27/35/24 11/33/24 2/37/24
f 28/22/25 13/24/25 14/23/25
f 34/25/26 32/38/26 12/39/26 13/24/26
f 18/26/27 19/15/27 31/14/27
f 17/28/28 18/26/28 29/27/28
f 35/19/29 16/18/29 17/28/29
f 33/17/30 15/21/30 16/18/30
f 27/35/31 20/36/31 8/29/31 26/12/31
f 30/20/32 14/23/32 15/21/32
f 6/30/33 3/32/33 22/4/33 23/6/33
f 25/10/34 26/12/34 8/29/34
f 23/6/35 9/8/35 6/30/35
f 10/11/36 9/8/36 35/19/36 29/27/36
f 3/32/37 21/2/37 22/4/37
f 1/31/38 20/3/38 21/2/38
f 34/25/39 4/34/39 2/1/39 32/38/39
f 28/22/40 5/5/40 4/34/40 34/25/40
f 10/11/41 29/27/41 31/14/41
f 32/13/42 2/37/42 11/33/42 31/14/42
f 28/22/43 30/20/43 5/5/43
f 30/20/44 33/17/44 7/7/44
f 33/17/45 35/19/45 9/8/45
f 41/40/46 40/41/46 37/42/46
f 36/43/47 40/44/47 39/45/47
f 37/42/48 38/46/48 44/47/48
f 38/46/49 39/45/49 49/48/49
f 44/47/50 38/46/50 49/49/50
f 39/45/51 43/50/51 49/51/51
f 49/51/52 43/50/52 50/52/52
f 50/53/53 48/54/53 49/55/53
f 48/54/54 44/56/54 49/55/54
f 46/57/55 50/52/55 43/50/55
f 47/58/56 48/54/56 50/52/56
f 45/59/57 44/56/57 48/54/57
f 36/43/58 39/45/58 38/46/58
f 46/57/59 47/58/59 50/52/59
f 46/57/60 42/60/60 47/58/60
f 47/58/61 45/59/61 48/54/61
f 45/59/62 37/61/62 44/56/62
f 38/46/63 37/42/63 36/43/63
f 39/45/64 40/44/64 43/50/64
f 40/44/65 46/57/65 43/50/65
f 40/62/66 42/60/66 46/57/66
f 40/62/67 41/63/67 42/60/67
f 41/63/68 47/58/68 42/60/68
f 41/64/69 45/59/69 47/58/69
f 41/65/70 37/61/70 45/59/70
f 40/41/71 36/43/71 37/42/71
