# Blender v3.1.2 OBJ File: 'tower_b.blend'
# www.blender.org
mtllib arrow.mtl
o Cube.014_Cube.033
v 0.409370 -0.007470 0.002783
v -0.387843 -0.010993 0.002780
v 0.409320 0.003996 -0.009215
v -0.387894 0.000473 -0.009218
v 0.409299 0.008654 0.006714
v -0.387914 0.005130 0.006711
v -0.327468 -0.010727 0.002780
v -0.327519 0.000740 -0.009218
v -0.327539 0.005397 0.006711
v -0.327426 -0.020298 -0.017242
v -0.387801 -0.020565 -0.017242
v -0.387803 -0.019961 -0.017874
v -0.327428 -0.019694 -0.017874
v -0.327616 0.022865 -0.007496
v -0.387991 0.022598 -0.007496
v -0.387993 0.022843 -0.006657
v -0.327618 0.023110 -0.006657
v -0.327484 -0.007156 0.025012
v -0.387859 -0.007423 0.025012
v -0.387855 -0.008273 0.024804
v -0.327480 -0.008006 0.024804
v -0.399774 -0.000986 -0.003451
v -0.399755 -0.005349 0.001114
v -0.399782 0.000787 0.002610
v 0.396457 -0.028862 -0.003588
v 0.448826 0.002567 -0.005364
v 0.395348 0.032143 -0.005685
v 0.396625 -0.027476 0.004337
v 0.448995 0.003953 0.002561
v 0.395516 0.033529 0.002239
vt 0.786442 0.968149
vt 0.808748 0.968149
vt 0.808748 0.968149
vt 0.786442 0.968149
vt 0.836632 0.934020
vt 0.850541 0.909929
vt 0.822723 0.909929
vt 0.808748 0.934689
vt 0.808748 0.959132
vt 0.786442 0.959132
vt 0.786442 0.934689
vt 0.831055 0.934689
vt 0.831055 0.959132
vt 0.853362 0.934689
vt 0.853362 0.959132
vt 0.343980 0.688446
vt 0.343980 0.697463
vt 0.321673 0.697463
vt 0.321673 0.688446
vt 0.343980 0.697463
vt 0.343980 0.688446
vt 0.321673 0.697463
vt 0.321673 0.688446
vt 0.459612 0.701799
vt 0.459612 0.701799
vt 0.437305 0.701799
vt 0.437305 0.701799
vt 0.321673 0.688446
vt 0.321673 0.697463
vt 0.299366 0.697463
vt 0.299366 0.688446
vt 0.299366 0.697463
vt 0.299366 0.688446
vt 0.437305 0.701799
vt 0.414999 0.701799
vt 0.414999 0.701799
vt 0.299366 0.688446
vt 0.299366 0.697463
vt 0.277059 0.697463
vt 0.277059 0.688446
vt 0.277059 0.697463
vt 0.277059 0.688446
vt 0.414999 0.701799
vt 0.392692 0.701799
vt 0.392692 0.701799
vt 0.817081 0.909929
vt 0.803172 0.934020
vt 0.789262 0.909929
vt 0.831055 0.968149
vt 0.831055 0.968149
vt 0.853362 0.968149
vt 0.853362 0.968149
vt 0.449083 0.930920
vt 0.435174 0.906828
vt 0.462992 0.906828
vt 0.449083 0.930920
vt 0.462992 0.906828
vt 0.435174 0.906828
vn -0.2412 -0.2309 0.9426
vn 1.0000 0.0044 -0.0000
vn 0.0010 -0.2369 0.9715
vn -0.0042 0.9598 -0.2806
vn 0.0032 -0.7229 -0.6909
vn 0.0032 -0.7229 -0.6910
vn 0.0040 -0.9022 0.4313
vn -1.0000 -0.0044 0.0000
vn -0.0017 0.3900 -0.9208
vn -0.0042 0.9598 -0.2805
vn -0.0003 0.0776 -0.9970
vn -0.0027 0.6024 0.7982
vn 0.0010 -0.2370 0.9715
vn -0.0036 0.8246 0.5657
vn 0.0044 -0.9924 0.1226
vn -0.2463 0.9302 -0.2722
vn -0.2391 -0.7025 -0.6703
vn -0.0131 -0.0346 -0.9993
vn 0.0131 0.0346 0.9993
vn -0.9996 -0.0173 0.0242
vn 0.4784 0.8632 -0.1611
vn 0.5131 -0.8473 0.1373
usemtl goblin.001
s off
f 2/1/1 6/2/1 24/3/1 23/4/1
f 1/5/2 3/6/2 5/7/2
f 5/8/3 9/9/3 7/10/3 1/11/3
f 3/12/4 8/13/4 9/9/4 5/8/4
f 1/14/5 7/15/5 8/13/5 3/12/5
f 10/16/6 11/17/6 12/18/6 13/19/6
f 2/20/7 11/17/7 10/16/7 7/21/7
f 4/22/8 12/18/8 11/17/8 2/20/8
f 8/23/9 13/19/9 12/18/9 4/22/9
f 7/24/2 10/25/2 13/26/2 8/27/2
f 14/28/10 15/29/10 16/30/10 17/31/10
f 4/22/11 15/29/11 14/28/11 8/23/11
f 6/32/8 16/30/8 15/29/8 4/22/8
f 9/33/12 17/31/12 16/30/12 6/32/12
f 8/27/2 14/34/2 17/35/2 9/36/2
f 18/37/13 19/38/13 20/39/13 21/40/13
f 6/32/14 19/38/14 18/37/14 9/33/14
f 2/41/8 20/39/8 19/38/8 6/32/8
f 7/42/15 21/40/15 20/39/15 2/41/15
f 9/36/2 18/43/2 21/44/2 7/45/2
f 22/46/8 23/47/8 24/48/8
f 6/2/16 4/49/16 22/50/16 24/3/16
f 4/49/17 2/51/17 23/52/17 22/50/17
f 25/53/18 27/54/18 26/55/18
f 28/56/19 29/57/19 30/58/19
f 27/54/20 25/53/20 28/56/20 30/58/20
f 26/55/21 27/54/21 30/58/21 29/57/21
f 25/53/22 26/55/22 29/57/22 28/56/22
